# Created by FreeCAD <https://www.freecad.org>
v 184.000000 113.000000 -16.000000
v 166.000000 113.000000 -16.000000
v 184.000000 113.000000 -10.000000
v 166.000000 113.000000 -10.000000
v 166.000000 107.000000 -16.000000
v 166.000000 107.000000 -10.000000
v 184.000000 107.000000 -16.000000
v 184.000000 107.000000 -10.000000
v 175.382904 108.446495 -16.000000
v 175.000000 108.400002 -16.000000
v 175.000000 108.400002 -10.000000
v 175.382904 108.446495 -10.000000
v 175.743561 108.583267 -16.000000
v 175.743561 108.583267 -10.000000
v 176.060989 108.802383 -10.000000
v 176.060989 108.802383 -16.000000
v 176.316772 109.091095 -16.000000
v 176.316772 109.091095 -10.000000
v 176.496033 109.432632 -10.000000
v 176.496033 109.432632 -16.000000
v 176.588333 109.807144 -16.000000
v 176.588333 109.807144 -10.000000
v 176.588333 110.192856 -16.000000
v 176.588333 110.192856 -10.000000
v 176.496033 110.567368 -16.000000
v 176.496033 110.567368 -10.000000
v 176.316772 110.908905 -16.000000
v 176.316772 110.908905 -10.000000
v 176.060989 111.197617 -16.000000
v 176.060989 111.197617 -10.000000
v 175.743561 111.416733 -16.000000
v 175.743561 111.416733 -10.000000
v 175.382904 111.553505 -16.000000
v 175.382904 111.553505 -10.000000
v 175.000000 111.599998 -16.000000
v 175.000000 111.599998 -10.000000
v 174.617096 111.553505 -16.000000
v 174.617096 111.553505 -10.000000
v 174.256439 111.416733 -16.000000
v 174.256439 111.416733 -10.000000
v 173.939011 111.197617 -16.000000
v 173.939011 111.197617 -10.000000
v 173.683228 110.908905 -16.000000
v 173.683228 110.908905 -10.000000
v 173.503967 110.567368 -16.000000
v 173.503967 110.567368 -10.000000
v 173.411667 110.192856 -10.000000
v 173.411667 110.192856 -16.000000
v 173.411667 109.807144 -16.000000
v 173.411667 109.807144 -10.000000
v 173.503967 109.432632 -16.000000
v 173.503967 109.432632 -10.000000
v 173.683228 109.091095 -16.000000
v 173.683228 109.091095 -10.000000
v 173.939011 108.802383 -16.000000
v 173.939011 108.802383 -10.000000
v 174.256439 108.583267 -10.000000
v 174.256439 108.583267 -16.000000
v 174.617096 108.446495 -16.000000
v 174.617096 108.446495 -10.000000
vn 0.000000 1.000000 -0.000000
vn 0.000000 1.000000 0.000000
vn -1.000000 0.000000 0.000000
vn -1.000000 -0.000000 0.000000
vn 0.000000 -1.000000 0.000000
vn 0.000000 -1.000000 0.000000
vn 1.000000 0.000000 0.000000
vn 1.000000 -0.000000 0.000000
vn -0.120538 0.992709 0.000000
vn -0.120538 0.992709 0.000000
vn -0.354589 0.935022 0.000000
vn -0.568084 0.822970 0.000000
vn -0.354589 0.935022 0.000000
vn -0.568084 0.822970 0.000000
vn -0.748502 0.663133 0.000000
vn -0.885448 0.464739 0.000000
vn -0.748502 0.663133 0.000000
vn -0.885448 0.464739 0.000000
vn -0.970947 0.239295 0.000000
vn -0.970947 0.239295 0.000000
vn -1.000000 0.000000 0.000000
vn -1.000000 0.000000 0.000000
vn -0.970947 -0.239295 0.000000
vn -0.970947 -0.239295 0.000000
vn -0.885448 -0.464739 0.000000
vn -0.885448 -0.464739 0.000000
vn -0.748502 -0.663133 0.000000
vn -0.748502 -0.663133 0.000000
vn -0.568084 -0.822970 0.000000
vn -0.568084 -0.822970 0.000000
vn -0.354589 -0.935022 0.000000
vn -0.354589 -0.935022 0.000000
vn -0.120538 -0.992709 0.000000
vn -0.120538 -0.992709 0.000000
vn 0.120538 -0.992709 0.000000
vn 0.120538 -0.992709 0.000000
vn 0.354589 -0.935022 0.000000
vn 0.354589 -0.935022 0.000000
vn 0.568084 -0.822970 0.000000
vn 0.568084 -0.822970 0.000000
vn 0.748502 -0.663133 0.000000
vn 0.748502 -0.663133 0.000000
vn 0.885448 -0.464739 0.000000
vn 0.970947 -0.239295 0.000000
vn 0.885448 -0.464739 0.000000
vn 0.970947 -0.239295 0.000000
vn 1.000000 0.000000 0.000000
vn 1.000000 0.000000 0.000000
vn 0.970947 0.239295 -0.000000
vn 0.970947 0.239295 0.000000
vn 0.885448 0.464739 -0.000000
vn 0.885448 0.464739 0.000000
vn 0.748502 0.663133 -0.000000
vn 0.568084 0.822970 -0.000000
vn 0.748502 0.663133 0.000000
vn 0.568084 0.822970 -0.000000
vn 0.354589 0.935022 -0.000000
vn 0.120538 0.992709 -0.000000
vn 0.354589 0.935022 0.000000
vn 0.120538 0.992709 -0.000000
vn -0.000000 0.000000 -1.000000
vn 0.000000 0.000000 -1.000000
vn -0.000000 0.000000 -1.000000
vn 0.000000 0.000000 -1.000000
vn -0.000000 0.000000 -1.000000
vn 0.000000 0.000000 -1.000000
vn -0.000000 -0.000000 -1.000000
vn 0.000000 -0.000000 -1.000000
vn 0.000000 -0.000000 -1.000000
vn 0.000000 -0.000000 -1.000000
vn 0.000000 -0.000000 -1.000000
vn 0.000000 -0.000000 -1.000000
vn 0.000000 0.000000 -1.000000
vn 0.000000 0.000000 -1.000000
vn 0.000000 0.000000 -1.000000
vn 0.000000 0.000000 -1.000000
vn 0.000000 0.000000 -1.000000
vn 0.000000 0.000000 -1.000000
vn 0.000000 0.000000 -1.000000
vn 0.000000 -0.000000 -1.000000
vn 0.000000 -0.000000 -1.000000
vn 0.000000 -0.000000 -1.000000
vn 0.000000 -0.000000 -1.000000
vn 0.000000 -0.000000 -1.000000
vn 0.000000 -0.000000 -1.000000
vn 0.000000 -0.000000 -1.000000
vn 0.000000 0.000000 -1.000000
vn 0.000000 0.000000 -1.000000
vn 0.000000 0.000000 -1.000000
vn -0.000000 0.000000 -1.000000
vn 0.000000 -0.000000 1.000000
vn 0.000000 0.000000 1.000000
vn 0.000000 -0.000000 1.000000
vn 0.000000 0.000000 1.000000
vn 0.000000 -0.000000 1.000000
vn 0.000000 0.000000 1.000000
vn 0.000000 -0.000000 1.000000
vn 0.000000 0.000000 1.000000
vn 0.000000 0.000000 1.000000
vn 0.000000 0.000000 1.000000
vn 0.000000 0.000000 1.000000
vn 0.000000 0.000000 1.000000
vn 0.000000 0.000000 1.000000
vn 0.000000 0.000000 1.000000
vn 0.000000 0.000000 1.000000
vn 0.000000 0.000000 1.000000
vn 0.000000 0.000000 1.000000
vn 0.000000 0.000000 1.000000
vn 0.000000 0.000000 1.000000
vn 0.000000 0.000000 1.000000
vn 0.000000 0.000000 1.000000
vn 0.000000 0.000000 1.000000
vn 0.000000 0.000000 1.000000
vn 0.000000 0.000000 1.000000
vn 0.000000 0.000000 1.000000
vn 0.000000 -0.000000 1.000000
vn 0.000000 0.000000 1.000000
vn 0.000000 0.000000 1.000000
vn 0.000000 0.000000 1.000000
vn 0.000000 0.000000 1.000000
f 1//1 2//1 3//1
f 3//2 2//2 4//2
f 2//3 5//3 4//3
f 4//4 5//4 6//4
f 5//5 7//5 6//5
f 6//6 7//6 8//6
f 7//7 1//7 8//7
f 8//8 1//8 3//8
f 9//9 10//9 11//9
f 9//10 11//10 12//10
f 13//11 12//11 14//11
f 13//12 14//12 15//12
f 13//13 9//13 12//13
f 16//14 13//14 15//14
f 17//15 15//15 18//15
f 17//16 18//16 19//16
f 17//17 16//17 15//17
f 20//18 17//18 19//18
f 21//19 19//19 22//19
f 21//20 20//20 19//20
f 23//21 22//21 24//21
f 23//22 21//22 22//22
f 25//23 24//23 26//23
f 25//24 23//24 24//24
f 27//25 26//25 28//25
f 27//26 25//26 26//26
f 29//27 28//27 30//27
f 29//28 27//28 28//28
f 31//29 30//29 32//29
f 31//30 29//30 30//30
f 33//31 31//31 32//31
f 33//32 32//32 34//32
f 35//33 33//33 34//33
f 35//34 34//34 36//34
f 37//35 36//35 38//35
f 37//36 35//36 36//36
f 39//37 38//37 40//37
f 39//38 37//38 38//38
f 41//39 40//39 42//39
f 41//40 39//40 40//40
f 43//41 42//41 44//41
f 43//42 41//42 42//42
f 45//43 44//43 46//43
f 45//44 46//44 47//44
f 45//45 43//45 44//45
f 48//46 45//46 47//46
f 49//47 47//47 50//47
f 49//48 48//48 47//48
f 51//49 50//49 52//49
f 51//50 49//50 50//50
f 53//51 52//51 54//51
f 53//52 51//52 52//52
f 55//53 54//53 56//53
f 55//54 56//54 57//54
f 55//55 53//55 54//55
f 58//56 55//56 57//56
f 59//57 57//57 60//57
f 59//58 60//58 11//58
f 59//59 58//59 57//59
f 10//60 59//60 11//60
f 41//61 43//61 2//61
f 2//62 39//62 41//62
f 43//63 45//63 2//63
f 2//64 37//64 39//64
f 45//65 48//65 2//65
f 2//66 49//66 5//66
f 48//67 49//67 2//67
f 49//68 51//68 5//68
f 51//69 53//69 5//69
f 53//70 55//70 5//70
f 55//71 58//71 5//71
f 58//72 59//72 5//72
f 23//73 1//73 21//73
f 25//74 1//74 23//74
f 27//75 1//75 25//75
f 29//76 1//76 27//76
f 31//77 1//77 29//77
f 33//78 1//78 31//78
f 35//79 1//79 33//79
f 9//80 7//80 10//80
f 13//81 7//81 9//81
f 16//82 7//82 13//82
f 17//83 7//83 16//83
f 20//84 7//84 17//84
f 21//85 7//85 20//85
f 1//86 7//86 21//86
f 2//87 1//87 35//87
f 2//88 35//88 37//88
f 7//89 5//89 10//89
f 10//90 5//90 59//90
f 44//91 42//91 4//91
f 40//92 4//92 42//92
f 46//93 44//93 4//93
f 38//94 4//94 40//94
f 47//95 46//95 4//95
f 50//96 4//96 6//96
f 50//97 47//97 4//97
f 52//98 50//98 6//98
f 54//99 52//99 6//99
f 56//100 54//100 6//100
f 57//101 56//101 6//101
f 60//102 57//102 6//102
f 3//103 24//103 22//103
f 3//104 26//104 24//104
f 3//105 28//105 26//105
f 3//106 30//106 28//106
f 3//107 32//107 30//107
f 3//108 34//108 32//108
f 3//109 36//109 34//109
f 8//110 12//110 11//110
f 8//111 14//111 12//111
f 8//112 15//112 14//112
f 8//113 18//113 15//113
f 8//114 19//114 18//114
f 8//115 22//115 19//115
f 8//116 3//116 22//116
f 3//117 4//117 36//117
f 36//118 4//118 38//118
f 6//119 8//119 11//119
f 6//120 11//120 60//120
