# Created by FreeCAD <https://www.freecad.org>
v 198.000000 7.000000 -14.000000
v 196.713760 6.880812 -14.000000
v 196.713760 6.880812 -4.000000
v 195.471313 6.527306 -4.000000
v 195.471313 6.527306 -14.000000
v 194.314972 5.951520 -14.000000
v 193.284134 5.173062 -14.000000
v 192.413879 4.218442 -14.000000
v 192.413879 4.218442 -4.000000
v 191.733856 3.120168 -14.000000
v 191.733856 3.120168 -4.000000
v 191.267227 1.915641 -14.000000
v 191.267227 1.915641 -4.000000
v 191.029861 0.645878 -14.000000
v 191.029861 0.645878 -4.000000
v 191.029861 -0.645878 -14.000000
v 191.029861 -0.645878 -4.000000
v 191.267227 -1.915641 -14.000000
v 191.267227 -1.915641 -4.000000
v 191.733856 -3.120168 -14.000000
v 191.733856 -3.120168 -4.000000
v 192.413879 -4.218442 -14.000000
v 192.413879 -4.218442 -4.000000
v 193.284134 -5.173062 -14.000000
v 194.314972 -5.951520 -14.000000
v 194.314972 -5.951520 -4.000000
v 195.471313 -6.527306 -4.000000
v 195.471313 -6.527306 -14.000000
v 196.713760 -6.880812 -14.000000
v 196.713760 -6.880812 -4.000000
v 198.000000 -7.000000 -4.000000
v 198.000000 -7.000000 -14.000000
v 199.286240 -6.880812 -4.000000
v 199.286240 -6.880812 -14.000000
v 200.528687 -6.527306 -4.000000
v 200.528687 -6.527306 -14.000000
v 201.685028 -5.951520 -14.000000
v 201.685028 -5.951520 -4.000000
v 202.715866 -5.173062 -4.000000
v 202.715866 -5.173062 -14.000000
v 203.586121 -4.218442 -14.000000
v 203.586121 -4.218442 -4.000000
v 204.266144 -3.120168 -4.000000
v 204.266144 -3.120168 -14.000000
v 204.732773 -1.915641 -14.000000
v 204.732773 -1.915641 -4.000000
v 204.970139 -0.645878 -14.000000
v 204.970139 -0.645878 -4.000000
v 204.970139 0.645878 -4.000000
v 204.970139 0.645878 -14.000000
v 204.732773 1.915641 -14.000000
v 204.732773 1.915641 -4.000000
v 204.266144 3.120168 -4.000000
v 204.266144 3.120168 -14.000000
v 203.586121 4.218442 -4.000000
v 203.586121 4.218442 -14.000000
v 202.715866 5.173062 -14.000000
v 201.685028 5.951520 -14.000000
v 201.685028 5.951520 -4.000000
v 200.528687 6.527306 -14.000000
v 200.528687 6.527306 -4.000000
v 199.286240 6.880812 -4.000000
v 199.286240 6.880812 -14.000000
v 198.000000 1.794270 -14.000000
v 198.000000 1.794270 -4.000000
v 197.521362 1.736154 -14.000000
v 197.070557 1.565182 -14.000000
v 196.673752 1.291291 -14.000000
v 196.673752 1.291291 -4.000000
v 196.354034 0.930399 -4.000000
v 196.354034 0.930399 -14.000000
v 196.129974 0.503480 -14.000000
v 196.129974 0.503480 -4.000000
v 196.014587 0.035343 -14.000000
v 196.014587 0.035343 -4.000000
v 196.014587 -0.446803 -14.000000
v 196.014587 -0.446803 -4.000000
v 196.129974 -0.914940 -14.000000
v 196.129974 -0.914940 -4.000000
v 196.354034 -1.341859 -14.000000
v 196.354034 -1.341859 -4.000000
v 196.673752 -1.702752 -14.000000
v 196.673752 -1.702752 -4.000000
v 197.070557 -1.976642 -14.000000
v 197.521362 -2.147614 -14.000000
v 198.000000 -2.205730 -14.000000
v 198.478638 -2.147614 -14.000000
v 198.929443 -1.976642 -14.000000
v 198.929443 -1.976642 -4.000000
v 199.326248 -1.702752 -14.000000
v 199.326248 -1.702752 -4.000000
v 199.645966 -1.341859 -14.000000
v 199.645966 -1.341859 -4.000000
v 199.870026 -0.914940 -14.000000
v 199.870026 -0.914940 -4.000000
v 199.985413 -0.446803 -14.000000
v 199.985413 -0.446803 -4.000000
v 199.985413 0.035343 -14.000000
v 199.985413 0.035343 -4.000000
v 199.870026 0.503480 -14.000000
v 199.870026 0.503480 -4.000000
v 199.645966 0.930399 -14.000000
v 199.645966 0.930399 -4.000000
v 199.326248 1.291291 -4.000000
v 199.326248 1.291291 -14.000000
v 198.929443 1.565182 -14.000000
v 198.929443 1.565182 -4.000000
v 198.478638 1.736154 -14.000000
v 202.715866 5.173062 -4.000000
v 198.478638 1.736154 -4.000000
v 198.000000 7.000000 -4.000000
v 197.521362 1.736154 -4.000000
v 197.070557 1.565182 -4.000000
v 194.314972 5.951520 -4.000000
v 193.284134 5.173062 -4.000000
v 198.478638 -2.147614 -4.000000
v 198.000000 -2.205730 -4.000000
v 197.521362 -2.147614 -4.000000
v 197.070557 -1.976642 -4.000000
v 193.284134 -5.173062 -4.000000
vn -0.092269 0.995734 0.000000
vn -0.092269 0.995734 0.000000
vn -0.273663 0.961826 0.000000
vn -0.273663 0.961826 0.000000
vn -0.445736 0.895165 0.000000
vn -0.602637 0.798015 0.000000
vn -0.445736 0.895165 0.000000
vn -0.602637 0.798015 0.000000
vn -0.739008 0.673697 0.000000
vn -0.739008 0.673697 0.000000
vn -0.850217 0.526433 0.000000
vn -0.850217 0.526433 0.000000
vn -0.932474 0.361237 0.000000
vn -0.932474 0.361237 0.000000
vn -0.982972 0.183754 0.000000
vn -0.982972 0.183754 0.000000
vn -1.000000 -0.000000 0.000000
vn -1.000000 0.000000 0.000000
vn -0.982972 -0.183754 0.000000
vn -0.982972 -0.183754 0.000000
vn -0.932474 -0.361237 0.000000
vn -0.932474 -0.361237 0.000000
vn -0.850217 -0.526433 0.000000
vn -0.739008 -0.673697 -0.000000
vn -0.850217 -0.526433 0.000000
vn -0.739008 -0.673697 0.000000
vn -0.602637 -0.798015 0.000000
vn -0.445736 -0.895165 -0.000000
vn -0.602637 -0.798015 0.000000
vn -0.445736 -0.895165 0.000000
vn -0.273663 -0.961826 0.000000
vn -0.092269 -0.995734 -0.000000
vn -0.273663 -0.961826 0.000000
vn 0.092269 -0.995734 0.000000
vn -0.092269 -0.995734 0.000000
vn 0.273663 -0.961826 0.000000
vn 0.092269 -0.995734 0.000000
vn 0.273663 -0.961826 0.000000
vn 0.445736 -0.895165 0.000000
vn 0.602637 -0.798015 0.000000
vn 0.445736 -0.895165 0.000000
vn 0.602637 -0.798015 0.000000
vn 0.739008 -0.673697 0.000000
vn 0.850217 -0.526433 0.000000
vn 0.739008 -0.673697 0.000000
vn 0.850217 -0.526433 0.000000
vn 0.932474 -0.361237 0.000000
vn 0.932474 -0.361237 0.000000
vn 0.982972 -0.183754 0.000000
vn 1.000000 -0.000000 0.000000
vn 0.982972 -0.183754 0.000000
vn 1.000000 0.000000 0.000000
vn 0.982972 0.183754 0.000000
vn 0.932474 0.361237 0.000000
vn 0.982972 0.183754 -0.000000
vn 0.850217 0.526433 0.000000
vn 0.932474 0.361237 0.000000
vn 0.850217 0.526433 0.000000
vn 0.739008 0.673697 0.000000
vn 0.739008 0.673697 -0.000000
vn 0.602637 0.798015 0.000000
vn 0.602637 0.798015 -0.000000
vn 0.445736 0.895165 0.000000
vn 0.273663 0.961826 0.000000
vn 0.445736 0.895165 -0.000000
vn 0.273663 0.961826 0.000000
vn 0.092269 0.995734 -0.000000
vn 0.092269 0.995734 0.000000
vn 0.120535 -0.992709 0.000000
vn 0.354611 -0.935014 0.000000
vn 0.120535 -0.992709 0.000000
vn 0.354611 -0.935014 0.000000
vn 0.568059 -0.822988 0.000000
vn 0.748516 -0.663117 0.000000
vn 0.568059 -0.822988 0.000000
vn 0.748516 -0.663117 0.000000
vn 0.885460 -0.464716 0.000000
vn 0.885460 -0.464716 0.000000
vn 0.970941 -0.239319 0.000000
vn 0.970941 -0.239319 0.000000
vn 1.000000 0.000000 0.000000
vn 1.000000 0.000000 0.000000
vn 0.970941 0.239319 -0.000000
vn 0.970941 0.239319 0.000000
vn 0.885460 0.464716 -0.000000
vn 0.885460 0.464716 0.000000
vn 0.748516 0.663117 -0.000000
vn 0.568059 0.822988 -0.000000
vn 0.748516 0.663117 0.000000
vn 0.568059 0.822988 -0.000000
vn 0.354611 0.935014 0.000000
vn 0.354611 0.935014 -0.000000
vn 0.120535 0.992709 -0.000000
vn 0.120535 0.992709 -0.000000
vn -0.120535 0.992709 0.000000
vn -0.120535 0.992709 0.000000
vn -0.354611 0.935014 0.000000
vn -0.354611 0.935014 0.000000
vn -0.568059 0.822988 0.000000
vn -0.568059 0.822988 0.000000
vn -0.748516 0.663117 0.000000
vn -0.748516 0.663117 0.000000
vn -0.885460 0.464716 0.000000
vn -0.885460 0.464716 0.000000
vn -0.970941 0.239319 0.000000
vn -0.970941 0.239319 0.000000
vn -1.000000 0.000000 0.000000
vn -1.000000 0.000000 0.000000
vn -0.970941 -0.239319 0.000000
vn -0.970941 -0.239319 0.000000
vn -0.885460 -0.464716 0.000000
vn -0.748516 -0.663117 0.000000
vn -0.885460 -0.464716 0.000000
vn -0.748516 -0.663117 0.000000
vn -0.568059 -0.822988 0.000000
vn -0.568059 -0.822988 0.000000
vn -0.354611 -0.935014 0.000000
vn -0.354611 -0.935014 0.000000
vn -0.120535 -0.992709 0.000000
vn -0.120535 -0.992709 0.000000
vn -0.000000 0.000000 -1.000000
vn -0.000000 0.000000 -1.000000
vn -0.000000 0.000000 -1.000000
vn 0.000000 0.000000 -1.000000
vn -0.000000 0.000000 -1.000000
vn 0.000000 0.000000 -1.000000
vn -0.000000 0.000000 -1.000000
vn 0.000000 0.000000 -1.000000
vn -0.000000 0.000000 -1.000000
vn 0.000000 0.000000 -1.000000
vn 0.000000 0.000000 -1.000000
vn -0.000000 0.000000 -1.000000
vn 0.000000 0.000000 -1.000000
vn 0.000000 -0.000000 -1.000000
vn -0.000000 0.000000 -1.000000
vn 0.000000 0.000000 -1.000000
vn 0.000000 0.000000 -1.000000
vn 0.000000 0.000000 -1.000000
vn 0.000000 -0.000000 -1.000000
vn -0.000000 0.000000 -1.000000
vn 0.000000 0.000000 -1.000000
vn 0.000000 0.000000 -1.000000
vn 0.000000 -0.000000 -1.000000
vn -0.000000 0.000000 -1.000000
vn 0.000000 0.000000 -1.000000
vn 0.000000 0.000000 -1.000000
vn 0.000000 -0.000000 -1.000000
vn -0.000000 0.000000 -1.000000
vn -0.000000 0.000000 -1.000000
vn 0.000000 -0.000000 -1.000000
vn 0.000000 0.000000 -1.000000
vn 0.000000 0.000000 -1.000000
vn -0.000000 0.000000 -1.000000
vn 0.000000 -0.000000 -1.000000
vn 0.000000 0.000000 -1.000000
vn 0.000000 0.000000 -1.000000
vn -0.000000 0.000000 -1.000000
vn 0.000000 -0.000000 -1.000000
vn 0.000000 0.000000 -1.000000
vn 0.000000 0.000000 -1.000000
vn 0.000000 -0.000000 -1.000000
vn -0.000000 0.000000 -1.000000
vn 0.000000 0.000000 -1.000000
vn -0.000000 0.000000 -1.000000
vn -0.000000 0.000000 -1.000000
vn -0.000000 0.000000 -1.000000
vn -0.000000 0.000000 -1.000000
vn 0.000000 0.000000 -1.000000
vn -0.000000 0.000000 -1.000000
vn 0.000000 0.000000 -1.000000
vn -0.000000 0.000000 -1.000000
vn 0.000000 0.000000 -1.000000
vn -0.000000 0.000000 -1.000000
vn 0.000000 0.000000 -1.000000
vn -0.000000 0.000000 -1.000000
vn 0.000000 0.000000 -1.000000
vn 0.000000 0.000000 -1.000000
vn 0.000000 0.000000 -1.000000
vn -0.000000 0.000000 -1.000000
vn 0.000000 0.000000 -1.000000
vn 0.000000 0.000000 1.000000
vn 0.000000 0.000000 1.000000
vn 0.000000 0.000000 1.000000
vn 0.000000 -0.000000 1.000000
vn 0.000000 0.000000 1.000000
vn -0.000000 0.000000 1.000000
vn 0.000000 0.000000 1.000000
vn 0.000000 -0.000000 1.000000
vn 0.000000 0.000000 1.000000
vn -0.000000 0.000000 1.000000
vn -0.000000 0.000000 1.000000
vn 0.000000 0.000000 1.000000
vn 0.000000 -0.000000 1.000000
vn 0.000000 -0.000000 1.000000
vn 0.000000 0.000000 1.000000
vn -0.000000 0.000000 1.000000
vn 0.000000 0.000000 1.000000
vn -0.000000 0.000000 1.000000
vn 0.000000 0.000000 1.000000
vn 0.000000 -0.000000 1.000000
vn -0.000000 0.000000 1.000000
vn 0.000000 0.000000 1.000000
vn 0.000000 0.000000 1.000000
vn 0.000000 -0.000000 1.000000
vn -0.000000 0.000000 1.000000
vn 0.000000 0.000000 1.000000
vn 0.000000 0.000000 1.000000
vn 0.000000 -0.000000 1.000000
vn 0.000000 -0.000000 1.000000
vn 0.000000 0.000000 1.000000
vn -0.000000 0.000000 1.000000
vn 0.000000 0.000000 1.000000
vn 0.000000 -0.000000 1.000000
vn 0.000000 0.000000 1.000000
vn -0.000000 0.000000 1.000000
vn 0.000000 0.000000 1.000000
vn 0.000000 -0.000000 1.000000
vn 0.000000 0.000000 1.000000
vn -0.000000 0.000000 1.000000
vn 0.000000 0.000000 1.000000
vn 0.000000 0.000000 1.000000
vn 0.000000 -0.000000 1.000000
vn -0.000000 0.000000 1.000000
vn 0.000000 0.000000 1.000000
vn 0.000000 0.000000 1.000000
vn 0.000000 0.000000 1.000000
vn -0.000000 0.000000 1.000000
vn 0.000000 0.000000 1.000000
vn 0.000000 0.000000 1.000000
vn 0.000000 -0.000000 1.000000
vn -0.000000 0.000000 1.000000
vn 0.000000 0.000000 1.000000
vn 0.000000 0.000000 1.000000
vn 0.000000 -0.000000 1.000000
vn 0.000000 0.000000 1.000000
vn -0.000000 0.000000 1.000000
vn 0.000000 -0.000000 1.000000
vn 0.000000 0.000000 1.000000
vn 0.000000 -0.000000 1.000000
vn -0.000000 0.000000 1.000000
f 1//1 2//1 111//1
f 111//2 2//2 3//2
f 3//3 2//3 4//3
f 2//4 5//4 4//4
f 4//5 6//5 114//5
f 114//6 6//6 115//6
f 5//7 6//7 4//7
f 6//8 7//8 115//8
f 115//9 8//9 9//9
f 7//10 8//10 115//10
f 9//11 10//11 11//11
f 8//12 10//12 9//12
f 10//13 12//13 11//13
f 11//14 12//14 13//14
f 12//15 14//15 13//15
f 13//16 14//16 15//16
f 15//17 16//17 17//17
f 14//18 16//18 15//18
f 17//19 18//19 19//19
f 16//20 18//20 17//20
f 19//21 20//21 21//21
f 18//22 20//22 19//22
f 21//23 22//23 23//23
f 23//24 22//24 120//24
f 20//25 22//25 21//25
f 22//26 24//26 120//26
f 120//27 25//27 26//27
f 26//28 25//28 27//28
f 24//29 25//29 120//29
f 25//30 28//30 27//30
f 27//31 29//31 30//31
f 30//32 29//32 31//32
f 28//33 29//33 27//33
f 31//34 32//34 33//34
f 29//35 32//35 31//35
f 33//36 34//36 35//36
f 32//37 34//37 33//37
f 34//38 36//38 35//38
f 35//39 37//39 38//39
f 38//40 37//40 39//40
f 36//41 37//41 35//41
f 37//42 40//42 39//42
f 39//43 41//43 42//43
f 42//44 41//44 43//44
f 40//45 41//45 39//45
f 41//46 44//46 43//46
f 43//47 45//47 46//47
f 44//48 45//48 43//48
f 46//49 47//49 48//49
f 48//50 47//50 49//50
f 45//51 47//51 46//51
f 47//52 50//52 49//52
f 49//53 51//53 52//53
f 52//54 51//54 53//54
f 50//55 51//55 49//55
f 53//56 54//56 55//56
f 51//57 54//57 53//57
f 54//58 56//58 55//58
f 55//59 57//59 109//59
f 56//60 57//60 55//60
f 109//61 58//61 59//61
f 57//62 58//62 109//62
f 59//63 60//63 61//63
f 61//64 60//64 62//64
f 58//65 60//65 59//65
f 60//66 63//66 62//66
f 63//67 1//67 62//67
f 62//68 1//68 111//68
f 64//69 65//69 112//69
f 66//70 112//70 113//70
f 66//71 64//71 112//71
f 67//72 66//72 113//72
f 68//73 113//73 69//73
f 68//74 69//74 70//74
f 68//75 67//75 113//75
f 71//76 68//76 70//76
f 72//77 70//77 73//77
f 72//78 71//78 70//78
f 74//79 73//79 75//79
f 74//80 72//80 73//80
f 76//81 75//81 77//81
f 76//82 74//82 75//82
f 78//83 77//83 79//83
f 78//84 76//84 77//84
f 80//85 79//85 81//85
f 80//86 78//86 79//86
f 82//87 81//87 83//87
f 82//88 83//88 119//88
f 82//89 80//89 81//89
f 84//90 82//90 119//90
f 85//91 84//91 119//91
f 85//92 119//92 118//92
f 85//93 118//93 117//93
f 86//94 85//94 117//94
f 87//95 117//95 116//95
f 87//96 86//96 117//96
f 88//97 116//97 89//97
f 88//98 87//98 116//98
f 90//99 89//99 91//99
f 90//100 88//100 89//100
f 92//101 91//101 93//101
f 92//102 90//102 91//102
f 94//103 93//103 95//103
f 94//104 92//104 93//104
f 96//105 95//105 97//105
f 96//106 94//106 95//106
f 98//107 97//107 99//107
f 98//108 96//108 97//108
f 100//109 99//109 101//109
f 100//110 98//110 99//110
f 102//111 101//111 103//111
f 102//112 103//112 104//112
f 102//113 100//113 101//113
f 105//114 102//114 104//114
f 106//115 104//115 107//115
f 106//116 105//116 104//116
f 108//117 107//117 110//117
f 108//118 106//118 107//118
f 64//119 110//119 65//119
f 64//120 108//120 110//120
f 56//121 105//121 57//121
f 57//122 105//122 58//122
f 54//123 102//123 56//123
f 56//124 102//124 105//124
f 58//125 106//125 60//125
f 105//126 106//126 58//126
f 51//127 100//127 54//127
f 54//128 100//128 102//128
f 60//129 108//129 63//129
f 106//130 108//130 60//130
f 47//131 98//131 50//131
f 50//132 98//132 51//132
f 51//133 98//133 100//133
f 1//134 64//134 2//134
f 63//135 64//135 1//135
f 108//136 64//136 63//136
f 45//137 96//137 47//137
f 47//138 96//138 98//138
f 2//139 66//139 5//139
f 64//140 66//140 2//140
f 45//141 94//141 96//141
f 44//142 94//142 45//142
f 5//143 67//143 6//143
f 66//144 67//144 5//144
f 44//145 92//145 94//145
f 41//146 92//146 44//146
f 6//147 68//147 7//147
f 67//148 68//148 6//148
f 41//149 40//149 92//149
f 92//150 40//150 90//150
f 68//151 8//151 7//151
f 71//152 8//152 68//152
f 40//153 37//153 90//153
f 90//154 37//154 88//154
f 71//155 10//155 8//155
f 72//156 10//156 71//156
f 37//157 36//157 88//157
f 88//158 36//158 87//158
f 74//159 12//159 72//159
f 72//160 12//160 10//160
f 87//161 34//161 86//161
f 36//162 34//162 87//162
f 74//163 14//163 12//163
f 34//164 32//164 86//164
f 76//165 16//165 74//165
f 74//166 16//166 14//166
f 86//167 29//167 85//167
f 32//168 29//168 86//168
f 78//169 18//169 76//169
f 76//170 18//170 16//170
f 85//171 28//171 84//171
f 29//172 28//172 85//172
f 80//173 20//173 78//173
f 78//174 20//174 18//174
f 84//175 25//175 82//175
f 28//176 25//176 84//176
f 80//177 22//177 20//177
f 80//178 24//178 22//178
f 82//179 24//179 80//179
f 25//180 24//180 82//180
f 104//181 55//181 109//181
f 104//182 109//182 59//182
f 103//183 53//183 55//183
f 103//184 55//184 104//184
f 107//185 59//185 61//185
f 107//186 104//186 59//186
f 101//187 52//187 53//187
f 101//188 53//188 103//188
f 110//189 61//189 62//189
f 110//190 107//190 61//190
f 99//191 48//191 49//191
f 99//192 49//192 52//192
f 99//193 52//193 101//193
f 65//194 111//194 3//194
f 65//195 62//195 111//195
f 65//196 110//196 62//196
f 97//197 46//197 48//197
f 97//198 48//198 99//198
f 112//199 3//199 4//199
f 112//200 65//200 3//200
f 95//201 46//201 97//201
f 95//202 43//202 46//202
f 113//203 4//203 114//203
f 113//204 112//204 4//204
f 93//205 43//205 95//205
f 93//206 42//206 43//206
f 69//207 114//207 115//207
f 69//208 113//208 114//208
f 39//209 42//209 93//209
f 39//210 93//210 91//210
f 9//211 69//211 115//211
f 9//212 70//212 69//212
f 38//213 39//213 91//213
f 38//214 91//214 89//214
f 11//215 70//215 9//215
f 11//216 73//216 70//216
f 35//217 38//217 89//217
f 35//218 89//218 116//218
f 13//219 73//219 11//219
f 13//220 75//220 73//220
f 33//221 116//221 117//221
f 33//222 35//222 116//222
f 15//223 75//223 13//223
f 31//224 33//224 117//224
f 17//225 77//225 75//225
f 17//226 75//226 15//226
f 30//227 31//227 117//227
f 30//228 117//228 118//228
f 19//229 79//229 77//229
f 19//230 77//230 17//230
f 27//231 30//231 118//231
f 27//232 118//232 119//232
f 21//233 81//233 79//233
f 21//234 79//234 19//234
f 26//235 119//235 83//235
f 26//236 27//236 119//236
f 23//237 81//237 21//237
f 120//238 83//238 81//238
f 120//239 81//239 23//239
f 120//240 26//240 83//240
